# xmcd
#
# Track frame offsets:
#	150
#	16880
#	31492
#	49055
#	61570
#	74427
#	94055
#	110382
#	130545
#	134647
#	157497
#	171612
#	187790
#	201737
#	222625
#
# Disc length: 3194 seconds
#
# Revision: 1
# Processed by: cddbd v1.5.2PL0 Copyright (c) Steve Scherf et al.
# Submitted via: audiograbber 1.83.01
#
DISCID=e50c780f
DTITLE=Barefoot Servants - 2 (Expanded Version)
DYEAR=2004
DGENRE=Blues
TTITLE0=Pharaoh´s House
TTITLE1=I Don´t Care At All
TTITLE2=Take My Breath Away
TTITLE3=When The Day Comes
TTITLE4=Rude Boy
TTITLE5=Crazy
TTITLE6=Bells Of St. Mary´s
TTITLE7=Brown Penny
TTITLE8=Trick Of Light
TTITLE9=Over Lovin´ You
TTITLE10=Monsters In Bethlehem
TTITLE11=Crack The Sky
TTITLE12=Love You Too Much
TTITLE13=Dog Days
TTITLE14=Phases Of The Moon
EXTD=
EXTT0=
EXTT1=
EXTT2=
EXTT3=
EXTT4=
EXTT5=
EXTT6=
EXTT7=
EXTT8=
EXTT9=
EXTT10=
EXTT11=
EXTT12=
EXTT13=
EXTT14=
PLAYORDER=
